<svg width="160" height="48" viewBox="0 0 160 48" fill="none" xmlns="http://www.w3.org/2000/svg">
<rect width="160" height="48" rx="4" fill="#009FFF"/>
<path d="M33.75 14.25C30.5808 14.2636 28.2248 14.7 26.52 15.4542C25.2478 16.0167 24.75 16.4423 24.75 17.8842V33C26.6986 31.2422 28.4278 30.75 35.25 30.75V14.25H33.75ZM14.25 14.25C17.4192 14.2636 19.7752 14.7 21.48 15.4542C22.7522 16.0167 23.25 16.4423 23.25 17.8842V33C21.3014 31.2422 19.5722 30.75 12.75 30.75V14.25H14.25Z" fill="white"/>
<path d="M57.248 15.3195C59.024 15.3195 60.576 15.6635 61.904 16.3515C63.248 17.0235 64.28 17.9995 65 19.2795C65.736 20.5435 66.104 22.0235 66.104 23.7195C66.104 25.4155 65.736 26.8875 65 28.1355C64.28 29.3835 63.248 30.3435 61.904 31.0155C60.576 31.6715 59.024 31.9995 57.248 31.9995H51.8V15.3195H57.248ZM57.248 29.7675C59.2 29.7675 60.696 29.2395 61.736 28.1835C62.776 27.1275 63.296 25.6395 63.296 23.7195C63.296 21.7835 62.776 20.2715 61.736 19.1835C60.696 18.0955 59.2 17.5515 57.248 17.5515H54.536V29.7675H57.248ZM74.5516 32.2155C73.3036 32.2155 72.1756 31.9355 71.1676 31.3755C70.1596 30.7995 69.3676 29.9995 68.7916 28.9755C68.2156 27.9355 67.9276 26.7355 67.9276 25.3755C67.9276 24.0315 68.2236 22.8395 68.8156 21.7995C69.4076 20.7595 70.2156 19.9595 71.2396 19.3995C72.2636 18.8395 73.4076 18.5595 74.6716 18.5595C75.9356 18.5595 77.0796 18.8395 78.1036 19.3995C79.1276 19.9595 79.9356 20.7595 80.5276 21.7995C81.1196 22.8395 81.4156 24.0315 81.4156 25.3755C81.4156 26.7195 81.1116 27.9115 80.5036 28.9515C79.8956 29.9915 79.0636 30.7995 78.0076 31.3755C76.9676 31.9355 75.8156 32.2155 74.5516 32.2155ZM74.5516 29.8395C75.2556 29.8395 75.9116 29.6715 76.5196 29.3355C77.1436 28.9995 77.6476 28.4955 78.0316 27.8235C78.4156 27.1515 78.6076 26.3355 78.6076 25.3755C78.6076 24.4155 78.4236 23.6075 78.0556 22.9515C77.6876 22.2795 77.1996 21.7755 76.5916 21.4395C75.9836 21.1035 75.3276 20.9355 74.6236 20.9355C73.9196 20.9355 73.2636 21.1035 72.6556 21.4395C72.0636 21.7755 71.5916 22.2795 71.2396 22.9515C70.8876 23.6075 70.7116 24.4155 70.7116 25.3755C70.7116 26.7995 71.0716 27.9035 71.7916 28.6875C72.5276 29.4555 73.4476 29.8395 74.5516 29.8395ZM83.2083 25.3755C83.2083 24.0155 83.4803 22.8235 84.0243 21.7995C84.5843 20.7595 85.3523 19.9595 86.3283 19.3995C87.3043 18.8395 88.4243 18.5595 89.6883 18.5595C91.2883 18.5595 92.6083 18.9435 93.6483 19.7115C94.7043 20.4635 95.4163 21.5435 95.7843 22.9515H92.8323C92.5923 22.2955 92.2083 21.7835 91.6803 21.4155C91.1523 21.0475 90.4883 20.8635 89.6883 20.8635C88.5683 20.8635 87.6723 21.2635 87.0003 22.0635C86.3443 22.8475 86.0163 23.9515 86.0163 25.3755C86.0163 26.7995 86.3443 27.9115 87.0003 28.7115C87.6723 29.5115 88.5683 29.9115 89.6883 29.9115C91.2723 29.9115 92.3203 29.2155 92.8323 27.8235H95.7843C95.4003 29.1675 94.6803 30.2395 93.6243 31.0395C92.5683 31.8235 91.2563 32.2155 89.6883 32.2155C88.4243 32.2155 87.3043 31.9355 86.3283 31.3755C85.3523 30.7995 84.5843 29.9995 84.0243 28.9755C83.4803 27.9355 83.2083 26.7355 83.2083 25.3755ZM103.311 32.2155C102.271 32.2155 101.335 32.0315 100.503 31.6635C99.6869 31.2795 99.0389 30.7675 98.5589 30.1275C98.0789 29.4715 97.8229 28.7435 97.7909 27.9435H100.623C100.671 28.5035 100.935 28.9755 101.415 29.3595C101.911 29.7275 102.527 29.9115 103.263 29.9115C104.031 29.9115 104.623 29.7675 105.039 29.4795C105.471 29.1755 105.687 28.7915 105.687 28.3275C105.687 27.8315 105.447 27.4635 104.967 27.2235C104.503 26.9835 103.759 26.7195 102.735 26.4315C101.743 26.1595 100.935 25.8955 100.311 25.6395C99.6869 25.3835 99.1429 24.9915 98.6789 24.4635C98.2309 23.9355 98.0069 23.2395 98.0069 22.3755C98.0069 21.6715 98.2149 21.0315 98.6309 20.4555C99.0469 19.8635 99.6389 19.3995 100.407 19.0635C101.191 18.7275 102.087 18.5595 103.095 18.5595C104.599 18.5595 105.807 18.9435 106.719 19.7115C107.647 20.4635 108.143 21.4955 108.207 22.8075H105.471C105.423 22.2155 105.183 21.7435 104.751 21.3915C104.319 21.0395 103.735 20.8635 102.999 20.8635C102.279 20.8635 101.727 20.9995 101.343 21.2715C100.959 21.5435 100.767 21.9035 100.767 22.3515C100.767 22.7035 100.895 22.9995 101.151 23.2395C101.407 23.4795 101.719 23.6715 102.087 23.8155C102.455 23.9435 102.999 24.1115 103.719 24.3195C104.679 24.5755 105.463 24.8395 106.071 25.1115C106.695 25.3675 107.231 25.7515 107.679 26.2635C108.127 26.7755 108.359 27.4555 108.375 28.3035C108.375 29.0555 108.167 29.7275 107.751 30.3195C107.335 30.9115 106.743 31.3755 105.975 31.7115C105.223 32.0475 104.335 32.2155 103.311 32.2155Z" fill="white"/>
<rect x="50" y="35.9995" width="108" height="0.001" fill="white"/>
</svg>
