<svg width="160" height="32" viewBox="0 0 160 32" fill="none" xmlns="http://www.w3.org/2000/svg">
<rect width="160" height="32" rx="2" fill="#009FFF"/>
<path d="M23.3125 8.6875C20.9356 8.6977 19.1686 9.025 17.89 9.59066C16.9359 10.0125 16.5625 10.3318 16.5625 11.4132V22.75C18.0239 21.4316 19.3209 21.0625 24.4375 21.0625V8.6875H23.3125ZM8.6875 8.6875C11.0644 8.6977 12.8314 9.025 14.11 9.59066C15.0641 10.0125 15.4375 10.3318 15.4375 11.4132V22.75C13.9761 21.4316 12.6791 21.0625 7.5625 21.0625V8.6875H8.6875Z" fill="white"/>
<path d="M39.436 9.48951C40.768 9.48951 41.932 9.74751 42.928 10.2635C43.936 10.7675 44.71 11.4995 45.25 12.4595C45.802 13.4075 46.078 14.5175 46.078 15.7895C46.078 17.0615 45.802 18.1655 45.25 19.1015C44.71 20.0375 43.936 20.7575 42.928 21.2615C41.932 21.7535 40.768 21.9995 39.436 21.9995H35.35V9.48951H39.436ZM39.436 20.3255C40.9 20.3255 42.022 19.9295 42.802 19.1375C43.582 18.3455 43.972 17.2295 43.972 15.7895C43.972 14.3375 43.582 13.2035 42.802 12.3875C42.022 11.5715 40.9 11.1635 39.436 11.1635H37.402V20.3255H39.436ZM52.4137 22.1615C51.4777 22.1615 50.6317 21.9515 49.8757 21.5315C49.1197 21.0995 48.5257 20.4995 48.0937 19.7315C47.6617 18.9515 47.4457 18.0515 47.4457 17.0315C47.4457 16.0235 47.6677 15.1295 48.1117 14.3495C48.5557 13.5695 49.1617 12.9695 49.9297 12.5495C50.6977 12.1295 51.5557 11.9195 52.5037 11.9195C53.4517 11.9195 54.3097 12.1295 55.0777 12.5495C55.8457 12.9695 56.4517 13.5695 56.8957 14.3495C57.3397 15.1295 57.5617 16.0235 57.5617 17.0315C57.5617 18.0395 57.3337 18.9335 56.8777 19.7135C56.4217 20.4935 55.7977 21.0995 55.0057 21.5315C54.2257 21.9515 53.3617 22.1615 52.4137 22.1615ZM52.4137 20.3795C52.9417 20.3795 53.4337 20.2535 53.8897 20.0015C54.3577 19.7495 54.7357 19.3715 55.0237 18.8675C55.3117 18.3635 55.4557 17.7515 55.4557 17.0315C55.4557 16.3115 55.3177 15.7055 55.0417 15.2135C54.7657 14.7095 54.3997 14.3315 53.9437 14.0795C53.4877 13.8275 52.9957 13.7015 52.4677 13.7015C51.9397 13.7015 51.4477 13.8275 50.9917 14.0795C50.5477 14.3315 50.1937 14.7095 49.9297 15.2135C49.6657 15.7055 49.5337 16.3115 49.5337 17.0315C49.5337 18.0995 49.8037 18.9275 50.3437 19.5155C50.8957 20.0915 51.5857 20.3795 52.4137 20.3795ZM58.9062 17.0315C58.9062 16.0115 59.1102 15.1175 59.5182 14.3495C59.9382 13.5695 60.5142 12.9695 61.2462 12.5495C61.9782 12.1295 62.8182 11.9195 63.7662 11.9195C64.9662 11.9195 65.9562 12.2075 66.7362 12.7835C67.5282 13.3475 68.0622 14.1575 68.3382 15.2135H66.1242C65.9442 14.7215 65.6562 14.3375 65.2602 14.0615C64.8642 13.7855 64.3662 13.6475 63.7662 13.6475C62.9262 13.6475 62.2542 13.9475 61.7502 14.5475C61.2582 15.1355 61.0122 15.9635 61.0122 17.0315C61.0122 18.0995 61.2582 18.9335 61.7502 19.5335C62.2542 20.1335 62.9262 20.4335 63.7662 20.4335C64.9542 20.4335 65.7402 19.9115 66.1242 18.8675H68.3382C68.0502 19.8755 67.5102 20.6795 66.7182 21.2795C65.9262 21.8675 64.9422 22.1615 63.7662 22.1615C62.8182 22.1615 61.9782 21.9515 61.2462 21.5315C60.5142 21.0995 59.9382 20.4995 59.5182 19.7315C59.1102 18.9515 58.9062 18.0515 58.9062 17.0315ZM73.9832 22.1615C73.2032 22.1615 72.5012 22.0235 71.8772 21.7475C71.2652 21.4595 70.7792 21.0755 70.4192 20.5955C70.0592 20.1035 69.8672 19.5575 69.8432 18.9575H71.9672C72.0032 19.3775 72.2012 19.7315 72.5612 20.0195C72.9332 20.2955 73.3952 20.4335 73.9472 20.4335C74.5232 20.4335 74.9672 20.3255 75.2792 20.1095C75.6032 19.8815 75.7652 19.5935 75.7652 19.2455C75.7652 18.8735 75.5852 18.5975 75.2252 18.4175C74.8772 18.2375 74.3192 18.0395 73.5512 17.8235C72.8072 17.6195 72.2012 17.4215 71.7332 17.2295C71.2652 17.0375 70.8572 16.7435 70.5092 16.3475C70.1732 15.9515 70.0052 15.4295 70.0052 14.7815C70.0052 14.2535 70.1612 13.7735 70.4732 13.3415C70.7852 12.8975 71.2292 12.5495 71.8052 12.2975C72.3932 12.0455 73.0652 11.9195 73.8212 11.9195C74.9492 11.9195 75.8552 12.2075 76.5392 12.7835C77.2352 13.3475 77.6072 14.1215 77.6552 15.1055H75.6032C75.5672 14.6615 75.3872 14.3075 75.0632 14.0435C74.7392 13.7795 74.3012 13.6475 73.7492 13.6475C73.2092 13.6475 72.7952 13.7495 72.5072 13.9535C72.2192 14.1575 72.0752 14.4275 72.0752 14.7635C72.0752 15.0275 72.1712 15.2495 72.3632 15.4295C72.5552 15.6095 72.7892 15.7535 73.0652 15.8615C73.3412 15.9575 73.7492 16.0835 74.2892 16.2395C75.0092 16.4315 75.5972 16.6295 76.0532 16.8335C76.5212 17.0255 76.9232 17.3135 77.2592 17.6975C77.5952 18.0815 77.7692 18.5915 77.7812 19.2275C77.7812 19.7915 77.6252 20.2955 77.3132 20.7395C77.0012 21.1835 76.5572 21.5315 75.9812 21.7835C75.4172 22.0355 74.7512 22.1615 73.9832 22.1615Z" fill="white"/>
<rect x="34" y="24.9995" width="124" height="0.001" fill="white"/>
</svg>
