<svg width="184" height="32" viewBox="0 0 184 32" fill="none" xmlns="http://www.w3.org/2000/svg">
<rect width="184" height="32" rx="2" fill="#009FFF"/>
<path d="M23.3125 8.6875C20.9356 8.6977 19.1686 9.025 17.89 9.59066C16.9359 10.0125 16.5625 10.3318 16.5625 11.4132V22.75C18.0239 21.4316 19.3209 21.0625 24.4375 21.0625V8.6875H23.3125ZM8.6875 8.6875C11.0644 8.6977 12.8314 9.025 14.11 9.59066C15.0641 10.0125 15.4375 10.3318 15.4375 11.4132V22.75C13.9761 21.4316 12.6791 21.0625 7.5625 21.0625V8.6875H8.6875Z" fill="white"/>
<path d="M39.436 9.48951C40.768 9.48951 41.932 9.74751 42.928 10.2635C43.936 10.7675 44.71 11.4995 45.25 12.4595C45.802 13.4075 46.078 14.5175 46.078 15.7895C46.078 17.0615 45.802 18.1655 45.25 19.1015C44.71 20.0375 43.936 20.7575 42.928 21.2615C41.932 21.7535 40.768 21.9995 39.436 21.9995H35.35V9.48951H39.436ZM39.436 20.3255C40.9 20.3255 42.022 19.9295 42.802 19.1375C43.582 18.3455 43.972 17.2295 43.972 15.7895C43.972 14.3375 43.582 13.2035 42.802 12.3875C42.022 11.5715 40.9 11.1635 39.436 11.1635H37.402V20.3255H39.436ZM52.4137 22.1615C51.4777 22.1615 50.6317 21.9515 49.8757 21.5315C49.1197 21.0995 48.5257 20.4995 48.0937 19.7315C47.6617 18.9515 47.4457 18.0515 47.4457 17.0315C47.4457 16.0235 47.6677 15.1295 48.1117 14.3495C48.5557 13.5695 49.1617 12.9695 49.9297 12.5495C50.6977 12.1295 51.5557 11.9195 52.5037 11.9195C53.4517 11.9195 54.3097 12.1295 55.0777 12.5495C55.8457 12.9695 56.4517 13.5695 56.8957 14.3495C57.3397 15.1295 57.5617 16.0235 57.5617 17.0315C57.5617 18.0395 57.3337 18.9335 56.8777 19.7135C56.4217 20.4935 55.7977 21.0995 55.0057 21.5315C54.2257 21.9515 53.3617 22.1615 52.4137 22.1615ZM52.4137 20.3795C52.9417 20.3795 53.4337 20.2535 53.8897 20.0015C54.3577 19.7495 54.7357 19.3715 55.0237 18.8675C55.3117 18.3635 55.4557 17.7515 55.4557 17.0315C55.4557 16.3115 55.3177 15.7055 55.0417 15.2135C54.7657 14.7095 54.3997 14.3315 53.9437 14.0795C53.4877 13.8275 52.9957 13.7015 52.4677 13.7015C51.9397 13.7015 51.4477 13.8275 50.9917 14.0795C50.5477 14.3315 50.1937 14.7095 49.9297 15.2135C49.6657 15.7055 49.5337 16.3115 49.5337 17.0315C49.5337 18.0995 49.8037 18.9275 50.3437 19.5155C50.8957 20.0915 51.5857 20.3795 52.4137 20.3795ZM58.9062 17.0315C58.9062 16.0115 59.1102 15.1175 59.5182 14.3495C59.9382 13.5695 60.5142 12.9695 61.2462 12.5495C61.9782 12.1295 62.8182 11.9195 63.7662 11.9195C64.9662 11.9195 65.9562 12.2075 66.7362 12.7835C67.5282 13.3475 68.0622 14.1575 68.3382 15.2135H66.1242C65.9442 14.7215 65.6562 14.3375 65.2602 14.0615C64.8642 13.7855 64.3662 13.6475 63.7662 13.6475C62.9262 13.6475 62.2542 13.9475 61.7502 14.5475C61.2582 15.1355 61.0122 15.9635 61.0122 17.0315C61.0122 18.0995 61.2582 18.9335 61.7502 19.5335C62.2542 20.1335 62.9262 20.4335 63.7662 20.4335C64.9542 20.4335 65.7402 19.9115 66.1242 18.8675H68.3382C68.0502 19.8755 67.5102 20.6795 66.7182 21.2795C65.9262 21.8675 64.9422 22.1615 63.7662 22.1615C62.8182 22.1615 61.9782 21.9515 61.2462 21.5315C60.5142 21.0995 59.9382 20.4995 59.5182 19.7315C59.1102 18.9515 58.9062 18.0515 58.9062 17.0315ZM79.3652 12.0815V21.9995H77.3132V20.8295C76.9892 21.2375 76.5632 21.5615 76.0352 21.8015C75.5192 22.0295 74.9672 22.1435 74.3792 22.1435C73.5992 22.1435 72.8972 21.9815 72.2732 21.6575C71.6612 21.3335 71.1752 20.8535 70.8152 20.2175C70.4672 19.5815 70.2932 18.8135 70.2932 17.9135V12.0815H72.3272V17.6075C72.3272 18.4955 72.5492 19.1795 72.9932 19.6595C73.4372 20.1275 74.0432 20.3615 74.8112 20.3615C75.5792 20.3615 76.1852 20.1275 76.6292 19.6595C77.0852 19.1795 77.3132 18.4955 77.3132 17.6075V12.0815H79.3652ZM94.0787 11.9195C94.8587 11.9195 95.5547 12.0815 96.1667 12.4055C96.7907 12.7295 97.2767 13.2095 97.6247 13.8455C97.9847 14.4815 98.1647 15.2495 98.1647 16.1495V21.9995H96.1307V16.4555C96.1307 15.5675 95.9087 14.8895 95.4647 14.4215C95.0207 13.9415 94.4147 13.7015 93.6467 13.7015C92.8787 13.7015 92.2667 13.9415 91.8107 14.4215C91.3667 14.8895 91.1447 15.5675 91.1447 16.4555V21.9995H89.1107V16.4555C89.1107 15.5675 88.8887 14.8895 88.4447 14.4215C88.0007 13.9415 87.3947 13.7015 86.6267 13.7015C85.8587 13.7015 85.2467 13.9415 84.7907 14.4215C84.3467 14.8895 84.1247 15.5675 84.1247 16.4555V21.9995H82.0727V12.0815H84.1247V13.2155C84.4607 12.8075 84.8867 12.4895 85.4027 12.2615C85.9187 12.0335 86.4707 11.9195 87.0587 11.9195C87.8507 11.9195 88.5587 12.0875 89.1827 12.4235C89.8067 12.7595 90.2867 13.2455 90.6227 13.8815C90.9227 13.2815 91.3907 12.8075 92.0267 12.4595C92.6627 12.0995 93.3467 11.9195 94.0787 11.9195ZM109.866 16.7975C109.866 17.1695 109.842 17.5055 109.794 17.8055H102.216C102.276 18.5975 102.57 19.2335 103.098 19.7135C103.626 20.1935 104.274 20.4335 105.042 20.4335C106.146 20.4335 106.926 19.9715 107.382 19.0475H109.596C109.296 19.9595 108.75 20.7095 107.958 21.2975C107.178 21.8735 106.206 22.1615 105.042 22.1615C104.094 22.1615 103.242 21.9515 102.486 21.5315C101.742 21.0995 101.154 20.4995 100.722 19.7315C100.302 18.9515 100.092 18.0515 100.092 17.0315C100.092 16.0115 100.296 15.1175 100.704 14.3495C101.124 13.5695 101.706 12.9695 102.45 12.5495C103.206 12.1295 104.07 11.9195 105.042 11.9195C105.978 11.9195 106.812 12.1235 107.544 12.5315C108.276 12.9395 108.846 13.5155 109.254 14.2595C109.662 14.9915 109.866 15.8375 109.866 16.7975ZM107.724 16.1495C107.712 15.3935 107.442 14.7875 106.914 14.3315C106.386 13.8755 105.732 13.6475 104.952 13.6475C104.244 13.6475 103.638 13.8755 103.134 14.3315C102.63 14.7755 102.33 15.3815 102.234 16.1495H107.724ZM116.889 11.9195C117.669 11.9195 118.365 12.0815 118.977 12.4055C119.601 12.7295 120.087 13.2095 120.435 13.8455C120.783 14.4815 120.957 15.2495 120.957 16.1495V21.9995H118.923V16.4555C118.923 15.5675 118.701 14.8895 118.257 14.4215C117.813 13.9415 117.207 13.7015 116.439 13.7015C115.671 13.7015 115.059 13.9415 114.603 14.4215C114.159 14.8895 113.937 15.5675 113.937 16.4555V21.9995H111.885V12.0815H113.937V13.2155C114.273 12.8075 114.699 12.4895 115.215 12.2615C115.743 12.0335 116.301 11.9195 116.889 11.9195ZM125.969 13.7555V19.2455C125.969 19.6175 126.053 19.8875 126.221 20.0555C126.401 20.2115 126.701 20.2895 127.121 20.2895H128.381V21.9995H126.761C125.837 21.9995 125.129 21.7835 124.637 21.3515C124.145 20.9195 123.899 20.2175 123.899 19.2455V13.7555H122.729V12.0815H123.899V9.61551H125.969V12.0815H128.381V13.7555H125.969ZM129.588 16.9955C129.588 15.9995 129.792 15.1175 130.2 14.3495C130.62 13.5815 131.184 12.9875 131.892 12.5675C132.612 12.1355 133.404 11.9195 134.268 11.9195C135.048 11.9195 135.726 12.0755 136.302 12.3875C136.89 12.6875 137.358 13.0655 137.706 13.5215V12.0815H139.776V21.9995H137.706V20.5235C137.358 20.9915 136.884 21.3815 136.284 21.6935C135.684 22.0055 135 22.1615 134.232 22.1615C133.38 22.1615 132.6 21.9455 131.892 21.5135C131.184 21.0695 130.62 20.4575 130.2 19.6775C129.792 18.8855 129.588 17.9915 129.588 16.9955ZM137.706 17.0315C137.706 16.3475 137.562 15.7535 137.274 15.2495C136.998 14.7455 136.632 14.3615 136.176 14.0975C135.72 13.8335 135.228 13.7015 134.7 13.7015C134.172 13.7015 133.68 13.8335 133.224 14.0975C132.768 14.3495 132.396 14.7275 132.108 15.2315C131.832 15.7235 131.694 16.3115 131.694 16.9955C131.694 17.6795 131.832 18.2795 132.108 18.7955C132.396 19.3115 132.768 19.7075 133.224 19.9835C133.692 20.2475 134.184 20.3795 134.7 20.3795C135.228 20.3795 135.72 20.2475 136.176 19.9835C136.632 19.7195 136.998 19.3355 137.274 18.8315C137.562 18.3155 137.706 17.7155 137.706 17.0315ZM144.865 13.7555V19.2455C144.865 19.6175 144.949 19.8875 145.117 20.0555C145.297 20.2115 145.597 20.2895 146.017 20.2895H147.277V21.9995H145.657C144.733 21.9995 144.025 21.7835 143.533 21.3515C143.041 20.9195 142.795 20.2175 142.795 19.2455V13.7555H141.625V12.0815H142.795V9.61551H144.865V12.0815H147.277V13.7555H144.865ZM150.212 10.7675C149.84 10.7675 149.528 10.6415 149.276 10.3895C149.024 10.1375 148.898 9.82551 148.898 9.45351C148.898 9.08151 149.024 8.76951 149.276 8.51751C149.528 8.26551 149.84 8.13951 150.212 8.13951C150.572 8.13951 150.878 8.26551 151.13 8.51751C151.382 8.76951 151.508 9.08151 151.508 9.45351C151.508 9.82551 151.382 10.1375 151.13 10.3895C150.878 10.6415 150.572 10.7675 150.212 10.7675ZM151.22 12.0815V21.9995H149.168V12.0815H151.22ZM158.216 22.1615C157.28 22.1615 156.434 21.9515 155.678 21.5315C154.922 21.0995 154.328 20.4995 153.896 19.7315C153.464 18.9515 153.248 18.0515 153.248 17.0315C153.248 16.0235 153.47 15.1295 153.914 14.3495C154.358 13.5695 154.964 12.9695 155.732 12.5495C156.5 12.1295 157.358 11.9195 158.306 11.9195C159.254 11.9195 160.112 12.1295 160.88 12.5495C161.648 12.9695 162.254 13.5695 162.698 14.3495C163.142 15.1295 163.364 16.0235 163.364 17.0315C163.364 18.0395 163.136 18.9335 162.68 19.7135C162.224 20.4935 161.6 21.0995 160.808 21.5315C160.028 21.9515 159.164 22.1615 158.216 22.1615ZM158.216 20.3795C158.744 20.3795 159.236 20.2535 159.692 20.0015C160.16 19.7495 160.538 19.3715 160.826 18.8675C161.114 18.3635 161.258 17.7515 161.258 17.0315C161.258 16.3115 161.12 15.7055 160.844 15.2135C160.568 14.7095 160.202 14.3315 159.746 14.0795C159.29 13.8275 158.798 13.7015 158.27 13.7015C157.742 13.7015 157.25 13.8275 156.794 14.0795C156.35 14.3315 155.996 14.7095 155.732 15.2135C155.468 15.7055 155.336 16.3115 155.336 17.0315C155.336 18.0995 155.606 18.9275 156.146 19.5155C156.698 20.0915 157.388 20.3795 158.216 20.3795ZM170.397 11.9195C171.177 11.9195 171.873 12.0815 172.485 12.4055C173.109 12.7295 173.595 13.2095 173.943 13.8455C174.291 14.4815 174.465 15.2495 174.465 16.1495V21.9995H172.431V16.4555C172.431 15.5675 172.209 14.8895 171.765 14.4215C171.321 13.9415 170.715 13.7015 169.947 13.7015C169.179 13.7015 168.567 13.9415 168.111 14.4215C167.667 14.8895 167.445 15.5675 167.445 16.4555V21.9995H165.393V12.0815H167.445V13.2155C167.781 12.8075 168.207 12.4895 168.723 12.2615C169.251 12.0335 169.809 11.9195 170.397 11.9195Z" fill="white"/>
<rect x="34" y="24.9995" width="124" height="0.001" fill="white"/>
</svg>
