<svg width="196" height="48" viewBox="0 0 196 48" fill="none" xmlns="http://www.w3.org/2000/svg">
<rect width="196" height="48" rx="4" fill="#009FFF"/>
<path d="M33.75 14.25C30.5808 14.2636 28.2248 14.7 26.52 15.4542C25.2478 16.0167 24.75 16.4423 24.75 17.8842V33C26.6986 31.2422 28.4278 30.75 35.25 30.75V14.25H33.75ZM14.25 14.25C17.4192 14.2636 19.7752 14.7 21.48 15.4542C22.7522 16.0167 23.25 16.4423 23.25 17.8842V33C21.3014 31.2422 19.5722 30.75 12.75 30.75V14.25H14.25Z" fill="white"/>
<path d="M53.13 9.01951C53.8633 9.01951 54.5067 9.16284 55.06 9.44951C55.62 9.73618 56.05 10.1462 56.35 10.6795C56.6567 11.2062 56.81 11.8195 56.81 12.5195C56.81 13.2195 56.6567 13.8328 56.35 14.3595C56.05 14.8795 55.62 15.2828 55.06 15.5695C54.5067 15.8562 53.8633 15.9995 53.13 15.9995H50.69V9.01951H53.13ZM53.08 14.8095C53.8133 14.8095 54.38 14.6095 54.78 14.2095C55.18 13.8095 55.38 13.2462 55.38 12.5195C55.38 11.7928 55.18 11.2262 54.78 10.8195C54.38 10.4062 53.8133 10.1995 53.08 10.1995H52.09V14.8095H53.08ZM61.098 16.0695C60.4446 16.0695 59.8446 15.9162 59.298 15.6095C58.7513 15.3028 58.318 14.8795 57.998 14.3395C57.678 13.7928 57.518 13.1762 57.518 12.4895C57.518 11.8095 57.678 11.1995 57.998 10.6595C58.318 10.1128 58.7513 9.68618 59.298 9.37951C59.8446 9.07284 60.4446 8.91951 61.098 8.91951C61.758 8.91951 62.358 9.07284 62.898 9.37951C63.4446 9.68618 63.8746 10.1128 64.188 10.6595C64.508 11.1995 64.668 11.8095 64.668 12.4895C64.668 13.1762 64.508 13.7928 64.188 14.3395C63.8746 14.8795 63.4446 15.3028 62.898 15.6095C62.3513 15.9162 61.7513 16.0695 61.098 16.0695ZM61.098 14.8195C61.518 14.8195 61.888 14.7262 62.208 14.5395C62.528 14.3462 62.778 14.0728 62.958 13.7195C63.138 13.3662 63.228 12.9562 63.228 12.4895C63.228 12.0228 63.138 11.6162 62.958 11.2695C62.778 10.9162 62.528 10.6462 62.208 10.4595C61.888 10.2728 61.518 10.1795 61.098 10.1795C60.678 10.1795 60.3046 10.2728 59.978 10.4595C59.658 10.6462 59.408 10.9162 59.228 11.2695C59.048 11.6162 58.958 12.0228 58.958 12.4895C58.958 12.9562 59.048 13.3662 59.228 13.7195C59.408 14.0728 59.658 14.3462 59.978 14.5395C60.3046 14.7262 60.678 14.8195 61.098 14.8195ZM65.3695 12.4995C65.3695 11.8128 65.5229 11.1995 65.8295 10.6595C66.1429 10.1128 66.5662 9.68951 67.0995 9.38951C67.6395 9.08284 68.2429 8.92951 68.9095 8.92951C69.6895 8.92951 70.3729 9.12951 70.9595 9.52951C71.5462 9.92951 71.9562 10.4828 72.1895 11.1895H70.5795C70.4195 10.8562 70.1929 10.6062 69.8995 10.4395C69.6129 10.2728 69.2795 10.1895 68.8995 10.1895C68.4929 10.1895 68.1295 10.2862 67.8095 10.4795C67.4962 10.6662 67.2495 10.9328 67.0695 11.2795C66.8962 11.6262 66.8095 12.0328 66.8095 12.4995C66.8095 12.9595 66.8962 13.3662 67.0695 13.7195C67.2495 14.0662 67.4962 14.3362 67.8095 14.5295C68.1295 14.7162 68.4929 14.8095 68.8995 14.8095C69.2795 14.8095 69.6129 14.7262 69.8995 14.5595C70.1929 14.3862 70.4195 14.1328 70.5795 13.7995H72.1895C71.9562 14.5128 71.5462 15.0695 70.9595 15.4695C70.3795 15.8628 69.6962 16.0595 68.9095 16.0595C68.2429 16.0595 67.6395 15.9095 67.0995 15.6095C66.5662 15.3028 66.1429 14.8795 65.8295 14.3395C65.5229 13.7995 65.3695 13.1862 65.3695 12.4995ZM74.7653 9.01951V13.3395C74.7653 13.8128 74.8886 14.1762 75.1353 14.4295C75.382 14.6762 75.7286 14.7995 76.1753 14.7995C76.6286 14.7995 76.9786 14.6762 77.2253 14.4295C77.472 14.1762 77.5953 13.8128 77.5953 13.3395V9.01951H79.0053V13.3295C79.0053 13.9228 78.8753 14.4262 78.6153 14.8395C78.362 15.2462 78.0186 15.5528 77.5853 15.7595C77.1586 15.9662 76.682 16.0695 76.1553 16.0695C75.6353 16.0695 75.162 15.9662 74.7353 15.7595C74.3153 15.5528 73.982 15.2462 73.7353 14.8395C73.4886 14.4262 73.3653 13.9228 73.3653 13.3295V9.01951H74.7653ZM87.968 9.01951V15.9995H86.568V11.4595L84.698 15.9995H83.638L81.758 11.4595V15.9995H80.358V9.01951H81.948L84.168 14.2095L86.388 9.01951H87.968ZM90.7521 10.1495V11.8995H93.1021V13.0095H90.7521V14.8595H93.4021V15.9995H89.3521V9.00951H93.4021V10.1495H90.7521ZM100.644 15.9995H99.2444L96.0744 11.2095V15.9995H94.6744V9.00951H96.0744L99.2444 13.8095V9.00951H100.644V15.9995ZM106.778 9.01951V10.1495H104.918V15.9995H103.518V10.1495H101.658V9.01951H106.778ZM112.079 14.6695H109.299L108.839 15.9995H107.369L109.879 9.00951H111.509L114.019 15.9995H112.539L112.079 14.6695ZM111.699 13.5495L110.689 10.6295L109.679 13.5495H111.699ZM119.708 9.01951V10.1495H117.848V15.9995H116.448V10.1495H114.588V9.01951H119.708ZM122.129 9.01951V15.9995H120.729V9.01951H122.129ZM126.752 16.0695C126.099 16.0695 125.499 15.9162 124.952 15.6095C124.406 15.3028 123.972 14.8795 123.652 14.3395C123.332 13.7928 123.172 13.1762 123.172 12.4895C123.172 11.8095 123.332 11.1995 123.652 10.6595C123.972 10.1128 124.406 9.68618 124.952 9.37951C125.499 9.07284 126.099 8.91951 126.752 8.91951C127.412 8.91951 128.012 9.07284 128.552 9.37951C129.099 9.68618 129.529 10.1128 129.842 10.6595C130.162 11.1995 130.322 11.8095 130.322 12.4895C130.322 13.1762 130.162 13.7928 129.842 14.3395C129.529 14.8795 129.099 15.3028 128.552 15.6095C128.006 15.9162 127.406 16.0695 126.752 16.0695ZM126.752 14.8195C127.172 14.8195 127.542 14.7262 127.862 14.5395C128.182 14.3462 128.432 14.0728 128.612 13.7195C128.792 13.3662 128.882 12.9562 128.882 12.4895C128.882 12.0228 128.792 11.6162 128.612 11.2695C128.432 10.9162 128.182 10.6462 127.862 10.4595C127.542 10.2728 127.172 10.1795 126.752 10.1795C126.332 10.1795 125.959 10.2728 125.632 10.4595C125.312 10.6462 125.062 10.9162 124.882 11.2695C124.702 11.6162 124.612 12.0228 124.612 12.4895C124.612 12.9562 124.702 13.3662 124.882 13.7195C125.062 14.0728 125.312 14.3462 125.632 14.5395C125.959 14.7262 126.332 14.8195 126.752 14.8195ZM137.334 15.9995H135.934L132.764 11.2095V15.9995H131.364V9.00951H132.764L135.934 13.8095V9.00951H137.334V15.9995Z" fill="white"/>
<path d="M54.536 34.7915H60.176V36.9995H51.8V20.3195H54.536V34.7915ZM74.5841 30.0635C74.5841 30.5595 74.5521 31.0075 74.4881 31.4075H64.3841C64.4641 32.4635 64.8561 33.3115 65.5601 33.9515C66.2641 34.5915 67.1281 34.9115 68.1521 34.9115C69.6241 34.9115 70.6641 34.2955 71.2721 33.0635H74.2241C73.8241 34.2795 73.0961 35.2795 72.0401 36.0635C71.0001 36.8315 69.7041 37.2155 68.1521 37.2155C66.8881 37.2155 65.7521 36.9355 64.7441 36.3755C63.7521 35.7995 62.9681 34.9995 62.3921 33.9755C61.8321 32.9355 61.5521 31.7355 61.5521 30.3755C61.5521 29.0155 61.8241 27.8235 62.3681 26.7995C62.9281 25.7595 63.7041 24.9595 64.6961 24.3995C65.7041 23.8395 66.8561 23.5595 68.1521 23.5595C69.4001 23.5595 70.5121 23.8315 71.4881 24.3755C72.4641 24.9195 73.2241 25.6875 73.7681 26.6795C74.3121 27.6555 74.5841 28.7835 74.5841 30.0635ZM71.7281 29.1995C71.7121 28.1915 71.3521 27.3835 70.6481 26.7755C69.9441 26.1675 69.0721 25.8635 68.0321 25.8635C67.0881 25.8635 66.2801 26.1675 65.6081 26.7755C64.9361 27.3675 64.5361 28.1755 64.4081 29.1995H71.7281ZM76.3646 30.3275C76.3646 28.9995 76.6366 27.8235 77.1806 26.7995C77.7406 25.7755 78.4926 24.9835 79.4366 24.4235C80.3966 23.8475 81.4526 23.5595 82.6046 23.5595C83.6446 23.5595 84.5486 23.7675 85.3166 24.1835C86.1006 24.5835 86.7246 25.0875 87.1886 25.6955V23.7755H89.9486V36.9995H87.1886V35.0315C86.7246 35.6555 86.0926 36.1755 85.2926 36.5915C84.4926 37.0075 83.5806 37.2155 82.5566 37.2155C81.4206 37.2155 80.3806 36.9275 79.4366 36.3515C78.4926 35.7595 77.7406 34.9435 77.1806 33.9035C76.6366 32.8475 76.3646 31.6555 76.3646 30.3275ZM87.1886 30.3755C87.1886 29.4635 86.9966 28.6715 86.6126 27.9995C86.2446 27.3275 85.7566 26.8155 85.1486 26.4635C84.5406 26.1115 83.8846 25.9355 83.1806 25.9355C82.4766 25.9355 81.8206 26.1115 81.2126 26.4635C80.6046 26.7995 80.1086 27.3035 79.7246 27.9755C79.3566 28.6315 79.1726 29.4155 79.1726 30.3275C79.1726 31.2395 79.3566 32.0395 79.7246 32.7275C80.1086 33.4155 80.6046 33.9435 81.2126 34.3115C81.8366 34.6635 82.4926 34.8395 83.1806 34.8395C83.8846 34.8395 84.5406 34.6635 85.1486 34.3115C85.7566 33.9595 86.2446 33.4475 86.6126 32.7755C86.9966 32.0875 87.1886 31.2875 87.1886 30.3755ZM96.2782 25.6955C96.6782 25.0235 97.2062 24.5035 97.8622 24.1355C98.5342 23.7515 99.3262 23.5595 100.238 23.5595V26.3915H99.5422C98.4702 26.3915 97.6542 26.6635 97.0942 27.2075C96.5502 27.7515 96.2782 28.6955 96.2782 30.0395V36.9995H93.5422V23.7755H96.2782V25.6955ZM109.425 23.5595C110.465 23.5595 111.393 23.7755 112.209 24.2075C113.041 24.6395 113.689 25.2795 114.153 26.1275C114.617 26.9755 114.849 27.9995 114.849 29.1995V36.9995H112.137V29.6075C112.137 28.4235 111.841 27.5195 111.249 26.8955C110.657 26.2555 109.849 25.9355 108.825 25.9355C107.801 25.9355 106.985 26.2555 106.377 26.8955C105.785 27.5195 105.489 28.4235 105.489 29.6075V36.9995H102.753V23.7755H105.489V25.2875C105.937 24.7435 106.505 24.3195 107.193 24.0155C107.897 23.7115 108.641 23.5595 109.425 23.5595ZM140.581 23.5595C141.621 23.5595 142.549 23.7755 143.365 24.2075C144.197 24.6395 144.845 25.2795 145.309 26.1275C145.789 26.9755 146.029 27.9995 146.029 29.1995V36.9995H143.317V29.6075C143.317 28.4235 143.021 27.5195 142.429 26.8955C141.837 26.2555 141.029 25.9355 140.005 25.9355C138.981 25.9355 138.165 26.2555 137.557 26.8955C136.965 27.5195 136.669 28.4235 136.669 29.6075V36.9995H133.957V29.6075C133.957 28.4235 133.661 27.5195 133.069 26.8955C132.477 26.2555 131.669 25.9355 130.645 25.9355C129.621 25.9355 128.805 26.2555 128.197 26.8955C127.605 27.5195 127.309 28.4235 127.309 29.6075V36.9995H124.573V23.7755H127.309V25.2875C127.757 24.7435 128.325 24.3195 129.013 24.0155C129.701 23.7115 130.437 23.5595 131.221 23.5595C132.277 23.5595 133.221 23.7835 134.053 24.2315C134.885 24.6795 135.525 25.3275 135.973 26.1755C136.373 25.3755 136.997 24.7435 137.845 24.2795C138.693 23.7995 139.605 23.5595 140.581 23.5595ZM155.247 37.2155C153.999 37.2155 152.871 36.9355 151.863 36.3755C150.855 35.7995 150.063 34.9995 149.487 33.9755C148.911 32.9355 148.623 31.7355 148.623 30.3755C148.623 29.0315 148.919 27.8395 149.511 26.7995C150.103 25.7595 150.911 24.9595 151.935 24.3995C152.959 23.8395 154.103 23.5595 155.367 23.5595C156.631 23.5595 157.775 23.8395 158.799 24.3995C159.823 24.9595 160.631 25.7595 161.223 26.7995C161.815 27.8395 162.111 29.0315 162.111 30.3755C162.111 31.7195 161.807 32.9115 161.199 33.9515C160.591 34.9915 159.759 35.7995 158.703 36.3755C157.663 36.9355 156.511 37.2155 155.247 37.2155ZM155.247 34.8395C155.951 34.8395 156.607 34.6715 157.215 34.3355C157.839 33.9995 158.343 33.4955 158.727 32.8235C159.111 32.1515 159.303 31.3355 159.303 30.3755C159.303 29.4155 159.119 28.6075 158.751 27.9515C158.383 27.2795 157.895 26.7755 157.287 26.4395C156.679 26.1035 156.023 25.9355 155.319 25.9355C154.615 25.9355 153.959 26.1035 153.351 26.4395C152.759 26.7755 152.287 27.2795 151.935 27.9515C151.583 28.6075 151.407 29.4155 151.407 30.3755C151.407 31.7995 151.767 32.9035 152.487 33.6875C153.223 34.4555 154.143 34.8395 155.247 34.8395ZM167.552 25.6955C167.952 25.0235 168.48 24.5035 169.136 24.1355C169.808 23.7515 170.6 23.5595 171.512 23.5595V26.3915H170.816C169.744 26.3915 168.928 26.6635 168.368 27.2075C167.824 27.7515 167.552 28.6955 167.552 30.0395V36.9995H164.816V23.7755H167.552V25.6955ZM186.147 30.0635C186.147 30.5595 186.115 31.0075 186.051 31.4075H175.947C176.027 32.4635 176.419 33.3115 177.123 33.9515C177.827 34.5915 178.691 34.9115 179.715 34.9115C181.187 34.9115 182.227 34.2955 182.835 33.0635H185.787C185.387 34.2795 184.659 35.2795 183.603 36.0635C182.563 36.8315 181.267 37.2155 179.715 37.2155C178.451 37.2155 177.315 36.9355 176.307 36.3755C175.315 35.7995 174.531 34.9995 173.955 33.9755C173.395 32.9355 173.115 31.7355 173.115 30.3755C173.115 29.0155 173.387 27.8235 173.931 26.7995C174.491 25.7595 175.267 24.9595 176.259 24.3995C177.267 23.8395 178.419 23.5595 179.715 23.5595C180.963 23.5595 182.075 23.8315 183.051 24.3755C184.027 24.9195 184.787 25.6875 185.331 26.6795C185.875 27.6555 186.147 28.7835 186.147 30.0635ZM183.291 29.1995C183.275 28.1915 182.915 27.3835 182.211 26.7755C181.507 26.1675 180.635 25.8635 179.595 25.8635C178.651 25.8635 177.843 26.1675 177.171 26.7755C176.499 27.3675 176.099 28.1755 175.971 29.1995H183.291Z" fill="white"/>
<rect x="50" y="40.9995" width="108" height="0.001" fill="white"/>
</svg>
