<svg width="48" height="48" viewBox="0 0 48 48" fill="none" xmlns="http://www.w3.org/2000/svg">
<rect width="48" height="48" rx="4" fill="#00A2FF"/>
<path d="M24.7 31.89C24.4712 31.955 24.2288 31.955 24 31.89C23.8069 31.8219 23.6394 31.6963 23.52 31.53C23.4603 31.4434 23.4211 31.3444 23.4055 31.2404C23.3899 31.1364 23.3983 31.0302 23.43 30.93C23.57 30.4 24.1 30.26 25 30.5L25.52 30.66L25.28 31.55C25.1256 31.7195 24.9234 31.8381 24.7 31.89Z" fill="white"/>
<path fill-rule="evenodd" clip-rule="evenodd" d="M16.206 9.99402L10.377 31.747L32.13 37.576L37.958 15.823L16.206 9.99402ZM30.158 16.655L28.993 21.001L33.34 22.166L34.504 17.819L30.158 16.655ZM17.52 30.07L14.77 29.34L16.15 24.2L15.39 24L13.83 29.76L17.35 30.7L17.52 30.07ZM20.0246 31.3851C20.2654 31.3557 20.4964 31.2719 20.7 31.14L20.6 31.57L21.3 31.76L22.45 27.45L21.72 27.25L20.88 30.39C20.7251 30.5741 20.5163 30.7049 20.2831 30.7641C20.0499 30.8233 19.804 30.8079 19.58 30.72C19.05 30.57 18.87 30.18 19.05 29.52L19.8 26.74L19.06 26.54L18.31 29.35C18.1503 29.7617 18.1503 30.2183 18.31 30.63C18.4153 30.8109 18.5597 30.9658 18.7328 31.0835C18.9059 31.2012 19.1031 31.2786 19.31 31.31C19.5394 31.3889 19.7838 31.4146 20.0246 31.3851ZM25.09 32.29C25.0669 32.4492 25.0669 32.6108 25.09 32.77L25.88 33.06V33C25.8485 32.6633 25.8825 32.3237 25.98 32L26.51 30C26.5687 29.796 26.5785 29.581 26.5385 29.3725C26.4986 29.164 26.41 28.9678 26.28 28.8C26.0254 28.4408 25.6422 28.1937 25.21 28.11C24.9136 28.0291 24.6035 28.0121 24.3 28.06C24.0273 28.0963 23.7687 28.2031 23.55 28.37C23.3624 28.5091 23.2254 28.7058 23.16 28.93L23.9 29.13C23.9264 29.0333 23.9769 28.9449 24.0469 28.8732C24.1169 28.8015 24.204 28.7487 24.3 28.72C24.5298 28.6392 24.7802 28.6392 25.01 28.72C25.1366 28.7438 25.257 28.7933 25.3636 28.8656C25.4703 28.9378 25.561 29.0312 25.63 29.14C25.6873 29.2408 25.7231 29.3524 25.7351 29.4677C25.7472 29.583 25.7352 29.6995 25.7 29.81L25.61 30.15L24.89 29.96C24.3901 29.7937 23.8499 29.7937 23.35 29.96C23.1526 30.0303 22.9763 30.1498 22.8381 30.3074C22.6998 30.4649 22.6041 30.6551 22.56 30.86C22.5128 31.0283 22.5027 31.2049 22.5304 31.3775C22.558 31.5502 22.6227 31.7148 22.72 31.86C22.9617 32.1907 23.3184 32.419 23.72 32.5C23.9504 32.5625 24.1913 32.5762 24.4272 32.54C24.6632 32.5038 24.889 32.4187 25.09 32.29ZM28.9383 33.7802C29.1807 33.7525 29.4138 33.6704 29.62 33.54L29.54 34L30.25 34.16L31.4 29.85L30.66 29.65L29.82 32.78C29.6667 32.9632 29.4597 33.0937 29.2282 33.1529C28.9967 33.2121 28.7525 33.1971 28.53 33.11C28 32.92 27.82 32.57 28 31.92L28.78 29.11L28.05 28.92L27.3 31.72C27.1403 32.1317 27.1403 32.5883 27.3 33C27.3947 33.1754 27.5257 33.3287 27.6844 33.4494C27.843 33.5701 28.0257 33.6555 28.22 33.7C28.4503 33.7805 28.6959 33.8079 28.9383 33.7802Z" fill="white"/>
</svg>
