<svg width="160" height="32" viewBox="0 0 160 32" fill="none" xmlns="http://www.w3.org/2000/svg">
<rect width="160" height="32" rx="2" fill="#00A2FF"/>
<path d="M16.4375 20.9312C16.2945 20.9718 16.143 20.9718 16 20.9312C15.8793 20.8887 15.7746 20.8101 15.7 20.7062C15.6627 20.6521 15.6382 20.5902 15.6285 20.5252C15.6187 20.4602 15.6239 20.3939 15.6438 20.3312C15.7313 19.9999 16.0625 19.9124 16.625 20.0624L16.95 20.1624L16.8 20.7187C16.7035 20.8247 16.5771 20.8988 16.4375 20.9312Z" fill="white"/>
<path fill-rule="evenodd" clip-rule="evenodd" d="M11.1288 7.24622L7.48563 20.8418L21.0813 24.485L24.7238 10.8893L11.1288 7.24622ZM19.8488 11.4093L19.1206 14.1256L21.8375 14.8537L22.565 12.1368L19.8488 11.4093ZM11.95 19.7937L10.2313 19.3374L11.0938 16.1249L10.6188 15.9999L9.64375 19.5999L11.8438 20.1874L11.95 19.7937ZM13.5154 20.6157C13.6659 20.5973 13.8102 20.5449 13.9375 20.4624L13.875 20.7312L14.3125 20.8499L15.0313 18.1562L14.575 18.0312L14.05 19.9937C13.9532 20.1088 13.8227 20.1905 13.6769 20.2275C13.5312 20.2645 13.3775 20.2549 13.2375 20.1999C12.9063 20.1062 12.7938 19.8624 12.9063 19.4499L13.375 17.7124L12.9125 17.5874L12.4438 19.3437C12.344 19.601 12.344 19.8864 12.4438 20.1437C12.5095 20.2567 12.5998 20.3536 12.708 20.4272C12.8162 20.5007 12.9394 20.5491 13.0688 20.5687C13.2121 20.618 13.3649 20.6341 13.5154 20.6157ZM16.6813 21.1812C16.6668 21.2807 16.6668 21.3817 16.6813 21.4812L17.175 21.6624V21.6249C17.1553 21.4145 17.1765 21.2023 17.2375 20.9999L17.5688 19.7499C17.6055 19.6224 17.6116 19.4881 17.5866 19.3578C17.5616 19.2274 17.5062 19.1049 17.425 18.9999C17.2659 18.7755 17.0264 18.621 16.7563 18.5687C16.571 18.5181 16.3772 18.5075 16.1875 18.5374C16.017 18.5601 15.8555 18.6269 15.7188 18.7312C15.6015 18.8181 15.5159 18.9411 15.475 19.0812L15.9375 19.2062C15.954 19.1458 15.9856 19.0905 16.0293 19.0457C16.0731 19.0009 16.1275 18.9679 16.1875 18.9499C16.3311 18.8994 16.4876 18.8994 16.6313 18.9499C16.7104 18.9648 16.7856 18.9958 16.8523 19.0409C16.9189 19.0861 16.9756 19.1445 17.0188 19.2124C17.0545 19.2754 17.0769 19.3452 17.0844 19.4172C17.092 19.4893 17.0845 19.5622 17.0625 19.6312L17.0063 19.8437L16.5563 19.7249C16.2438 19.621 15.9062 19.621 15.5938 19.7249C15.4703 19.7689 15.3602 19.8436 15.2738 19.9421C15.1874 20.0405 15.1276 20.1594 15.1 20.2874C15.0705 20.3927 15.0642 20.503 15.0815 20.6109C15.0987 20.7188 15.1392 20.8217 15.2 20.9124C15.3511 21.1192 15.574 21.2619 15.825 21.3124C15.969 21.3515 16.1196 21.3601 16.267 21.3375C16.4145 21.3149 16.5556 21.2616 16.6813 21.1812ZM19.0864 22.1126C19.238 22.0953 19.3836 22.0439 19.5125 21.9624L19.4625 22.2499L19.9063 22.3499L20.625 19.6562L20.1625 19.5312L19.6375 21.4874C19.5417 21.602 19.4123 21.6835 19.2676 21.7205C19.1229 21.7575 18.9703 21.7481 18.8313 21.6937C18.5 21.5749 18.3875 21.3562 18.5 20.9499L18.9875 19.1937L18.5313 19.0749L18.0625 20.8249C17.9627 21.0823 17.9627 21.3676 18.0625 21.6249C18.1217 21.7346 18.2036 21.8304 18.3027 21.9058C18.4019 21.9813 18.516 22.0347 18.6375 22.0624C18.7815 22.1128 18.9349 22.1299 19.0864 22.1126Z" fill="white"/>
<path d="M37.402 20.3435H41.632V21.9995H35.35V9.48951H37.402V20.3435ZM52.33 12.0815V21.9995H50.278V20.8295C49.954 21.2375 49.528 21.5615 49 21.8015C48.484 22.0295 47.932 22.1435 47.344 22.1435C46.564 22.1435 45.862 21.9815 45.238 21.6575C44.626 21.3335 44.14 20.8535 43.78 20.2175C43.432 19.5815 43.258 18.8135 43.258 17.9135V12.0815H45.292V17.6075C45.292 18.4955 45.514 19.1795 45.958 19.6595C46.402 20.1275 47.008 20.3615 47.776 20.3615C48.544 20.3615 49.15 20.1275 49.594 19.6595C50.05 19.1795 50.278 18.4955 50.278 17.6075V12.0815H52.33ZM54.3535 16.9955C54.3535 15.9995 54.5575 15.1175 54.9655 14.3495C55.3855 13.5815 55.9495 12.9875 56.6575 12.5675C57.3775 12.1355 58.1695 11.9195 59.0335 11.9195C59.8135 11.9195 60.4915 12.0755 61.0675 12.3875C61.6555 12.6875 62.1235 13.0655 62.4715 13.5215V12.0815H64.5415V21.9995H62.4715V20.5235C62.1235 20.9915 61.6495 21.3815 61.0495 21.6935C60.4495 22.0055 59.7655 22.1615 58.9975 22.1615C58.1455 22.1615 57.3655 21.9455 56.6575 21.5135C55.9495 21.0695 55.3855 20.4575 54.9655 19.6775C54.5575 18.8855 54.3535 17.9915 54.3535 16.9955ZM62.4715 17.0315C62.4715 16.3475 62.3275 15.7535 62.0395 15.2495C61.7635 14.7455 61.3975 14.3615 60.9415 14.0975C60.4855 13.8335 59.9935 13.7015 59.4655 13.7015C58.9375 13.7015 58.4455 13.8335 57.9895 14.0975C57.5335 14.3495 57.1615 14.7275 56.8735 15.2315C56.5975 15.7235 56.4595 16.3115 56.4595 16.9955C56.4595 17.6795 56.5975 18.2795 56.8735 18.7955C57.1615 19.3115 57.5335 19.7075 57.9895 19.9835C58.4575 20.2475 58.9495 20.3795 59.4655 20.3795C59.9935 20.3795 60.4855 20.2475 60.9415 19.9835C61.3975 19.7195 61.7635 19.3355 62.0395 18.8315C62.3275 18.3155 62.4715 17.7155 62.4715 17.0315ZM76.2187 12.0815V21.9995H74.1667V20.8295C73.8427 21.2375 73.4167 21.5615 72.8887 21.8015C72.3727 22.0295 71.8207 22.1435 71.2327 22.1435C70.4527 22.1435 69.7507 21.9815 69.1267 21.6575C68.5147 21.3335 68.0287 20.8535 67.6687 20.2175C67.3207 19.5815 67.1467 18.8135 67.1467 17.9135V12.0815H69.1807V17.6075C69.1807 18.4955 69.4027 19.1795 69.8467 19.6595C70.2907 20.1275 70.8967 20.3615 71.6647 20.3615C72.4327 20.3615 73.0387 20.1275 73.4827 19.6595C73.9387 19.1795 74.1667 18.4955 74.1667 17.6075V12.0815H76.2187Z" fill="white"/>
<rect x="34" y="24.9995" width="124" height="0.001" fill="white"/>
</svg>
